<?xml version="1.0" encoding="utf-8"?>
<!-- Generator: Adobe Illustrator 21.1.0, SVG Export Plug-In . SVG Version: 6.00 Build 0)  -->
<svg version="1.1" id="图层_1" xmlns="http://www.w3.org/2000/svg" xmlns:xlink="http://www.w3.org/1999/xlink" x="0px" y="0px"
	 viewBox="0 0 300 300" style="enable-background:new 0 0 300 300;" xml:space="preserve">
<style type="text/css">
	.st0{clip-path:url(#SVGID_1_);}
	.st1{fill:url(#SVGID_2_);}
	.st2{fill:url(#SVGID_3_);}
	.st3{fill:url(#SVGID_4_);}
	.st4{fill:url(#SVGID_5_);}
	.st5{fill:url(#SVGID_6_);}
	.st6{fill:#FFFFFF;}
	.st7{fill:#FF4E86;}
	.st8{fill:#212A71;}
	.st9{fill:#119BF0;}
	.st10{fill:#15B4F8;}
	.st11{fill:url(#Coat-Back_1_);}
	.st12{fill:url(#SVGID_7_);}
</style>
<g>
	<g>
		<defs>
			<rect id="SVGID_9_" width="300" height="300"/>
		</defs>
		<clipPath id="SVGID_1_">
			<use xlink:href="#SVGID_9_"  style="overflow:visible;"/>
		</clipPath>
		<g class="st0">
			
				<linearGradient id="SVGID_2_" gradientUnits="userSpaceOnUse" x1="100.3999" y1="-5721.1548" x2="100.3999" y2="-5679.9507" gradientTransform="matrix(1 0 0 1 0 5928)">
				<stop  offset="0.1119" style="stop-color:#F8F9FD"/>
				<stop  offset="0.9205" style="stop-color:#E2E6ED"/>
			</linearGradient>
			<path class="st1" d="M13.9,206.8h151.6c0,0-5.8,43.9,21.4,39.2c-2.5,1.2-5.6,2-17.6,2c-11.9,0-129.8,0-132.2,0
				C31.9,248.1,13.9,246.8,13.9,206.8z"/>
			<g>
				<g>
					
						<linearGradient id="SVGID_3_" gradientUnits="userSpaceOnUse" x1="242.5502" y1="-5727.5" x2="242.5502" y2="-5680.8999" gradientTransform="matrix(1 0 0 1 0 5928)">
						<stop  offset="0.1119" style="stop-color:#F8F9FD"/>
						<stop  offset="0.9205" style="stop-color:#E2E6ED"/>
					</linearGradient>
					<path class="st2" d="M205.1,200.5v39.7c0,0,8.4,6.9,36.6,6.9c27.9,0,38.2-6.9,38.2-6.9l0.1-39.7H205.1z"/>
					
						<linearGradient id="SVGID_4_" gradientUnits="userSpaceOnUse" x1="232.8162" y1="-5744.2729" x2="252.1838" y2="-5710.7271" gradientTransform="matrix(1 0 0 1 0 5928)">
						<stop  offset="0.1119" style="stop-color:#F8F9FD"/>
						<stop  offset="0.9205" style="stop-color:#E2E6ED"/>
					</linearGradient>
					<ellipse class="st3" cx="242.5" cy="200.5" rx="37.4" ry="5.8"/>
				</g>
				<g>
					
						<linearGradient id="SVGID_5_" gradientUnits="userSpaceOnUse" x1="127.5" y1="242.2" x2="215.1465" y2="242.2" gradientTransform="matrix(1 0 0 -1 0 302)">
						<stop  offset="0.1119" style="stop-color:#F8F9FD"/>
						<stop  offset="0.9205" style="stop-color:#E2E6ED"/>
					</linearGradient>
					<path class="st4" d="M128.4,80.6H215c0,0,2.1-26.7-9.6-36.8C203.1,42,199,39,176.7,39s-49.2,0-49.2,0L128.4,80.6z"/>
					
						<linearGradient id="SVGID_6_" gradientUnits="userSpaceOnUse" x1="121.2001" y1="-5888.9292" x2="121.2001" y2="-5680" gradientTransform="matrix(1 0 0 1 0 5928)">
						<stop  offset="0.1119" style="stop-color:#F8F9FD"/>
						<stop  offset="0.9205" style="stop-color:#E2E6ED"/>
					</linearGradient>
					<path class="st5" d="M205.1,43.5c0,0-12.8-9.4-12.8,17.3s0,171.6,0,171.6s2,15.6-13.5,15.6s-141.5,0-141.5,0s0-189.9,0-192.3
						c0-2.5,0.4-16.6,12.2-16.6s137.3,0,141.9,0C195.9,39,201.9,38.9,205.1,43.5z"/>
					<g>
						<path class="st6" d="M57.7,73.9h64.6c2.4,0,4.3-1.9,4.3-4.3c0-2.4-1.9-4.3-4.3-4.3H57.7c-2.4,0-4.3,1.9-4.3,4.3
							S55.4,73.9,57.7,73.9z"/>
						<path class="st6" d="M57.7,101.6h64.6c2.4,0,4.3-1.9,4.3-4.3c0-2.4-1.9-4.3-4.3-4.3H57.7c-2.4,0-4.3,1.9-4.3,4.3
							C53.4,99.6,55.4,101.6,57.7,101.6z"/>
						<path class="st6" d="M57.7,129.2h111.6c2.4,0,4.3-1.9,4.3-4.3c0-2.4-1.9-4.3-4.3-4.3H57.7c-2.4,0-4.3,1.9-4.3,4.3
							S55.4,129.2,57.7,129.2z"/>
						<path class="st6" d="M169.3,149.1H57.7c-2.4,0-4.3,1.9-4.3,4.3s1.9,4.3,4.3,4.3h111.6c2.4,0,4.3-1.9,4.3-4.3
							S171.6,149.1,169.3,149.1z"/>
						<path class="st6" d="M169.3,176.7H57.7c-2.4,0-4.3,1.9-4.3,4.3s1.9,4.3,4.3,4.3h111.6c2.4,0,4.3-1.9,4.3-4.3
							S171.6,176.7,169.3,176.7z"/>
						<path class="st6" d="M145.7,101h18.8c2.9,0,5.3-2.4,5.3-5.3V70.5c0-2.9-2.4-5.3-5.3-5.3h-18.8c-2.9,0-5.3,2.4-5.3,5.3v25.2
							C140.4,98.6,142.8,101,145.7,101z"/>
					</g>
					<g>
						<g id="Head_5_" transform="translate(54.000000, 31.000000)">
							<g>
								<path class="st7" d="M170.5,87.5c2.2-2.5,3.6-5.7,3.4-9.2c-0.7-10.1-14.7-7.9-17.4-2.8c-2.7,5.1-2.4,18,1.1,18.9
									c1.4,0.4,4.4-0.5,7.5-2.4l-1.9,13.6h11.3L170.5,87.5z"/>
							</g>
						</g>
						<path id="hair_5_" class="st8" d="M216.9,100.7c1.5-0.3,5.5-0.4,6.2-0.4c0.5,0,1,0.1,1.2-0.3c0.2-0.4,0.2-1,0.2-1.3
							c0.1-0.5,0.2-1,0.3-1.4c0.3-1.3,0.8-2.6,1.5-3.8c1.3-2.3,3.2-4,5.6-5c2.6-1.1,5.6-1.4,8.4-1.2c3,0.3,5.8,1.2,8.6,2.2
							c2.7,0.9,5.6,1.2,8.4,0.8c2.9-0.4,5-2,7.5-3.5s5.3-2.5,8.2-2.3c2.8,0.2,5.2,1.3,7.5,2.9c2.1,1.4,3.8,3.1,4.9,5.5
							c1.1,2.6,1.1,5.4-0.7,7.7c-2.5,3.3-7.2,4.2-11.1,4c-2.3-0.1-4.5-0.5-6.6-1.2c-2.9-1-5.3-2.7-7.9-4.1c-1.2-0.6-2.5-1.2-3.9-1.6
							c-1.3-0.4-2.6-0.5-3.8,0.3c-1.2,0.9-2.4,1.7-3.8,2.2c-1.4,0.5-2.9,0.8-4.3,0.8c-2.9,0-5.7-0.9-8.4-1.5c-2.3-0.5-4.7-1-7-0.5
							c-1,0.2-2.4,0.6-2.7,1.6c5.8,1.1,8.2,8.3,6.5,13.7c-0.9,2.9-6.3,6.3-8.3,4.8c-1.3-1-0.5-2.2,0-3c1-1.6,1.3-3.6-0.5-4.8
							c-1.6-1-3.2,1.3-3.3,1.3c-0.4-0.1-4.2-2.2-6.8-5.3c-2.5,0.2-2.9-1.6-2.3-2.9C211,102.8,214.8,101,216.9,100.7z"/>
						<path id="Skin_8_" class="st7" d="M164.8,252.5c6-13.4,10.4-25,12.1-31.2c3-10.5,5.3-19.8,5.8-23.2c1.3-8.3-10.5-8.7-12.1-4.6
							c-2.4,6.2-6.5,26.6-11.6,57.3L164.8,252.5z M234.5,210.5c-5.5-2.2-24.8-9.1-34.2-11c-2.7-0.5-5.3-1.1-7.7-1.6
							c-7.2-1.4-11,11.8-4,12.7c17.4,2.5,42.1,5.1,44.2,5.4C235.8,216.6,238,211.9,234.5,210.5z"/>
						<path id="Leg-Back_2_" class="st9" d="M188.2,194.4l29.9-15.3v-3.3h-3.6c-28.9,7.4-43.6,12.1-44.3,14.2v0.1l-0.1,0.1
							c-5.7,7.9-9.1,46.5-10.3,49.4l11,1.6c4.2-15.6,17.6-26.5,17.3-45.2C188.2,195.4,188.2,194.9,188.2,194.4z"/>
						<path id="Leg-Front_2_" class="st10" d="M215.6,203.5c2.8-0.5,5.2-1,7.4-1.4c13.9-2.4,18-9.9,15.5-26.2h-25.6
							c-4.2,1.2-25.9,10.4-37.2,15.2c-7.5,3.2-5.1,14.8-0.9,17.9c0,0.2,0.1,0.3,0.2,0.4c22.7,9.4,40.8,4.5,46.8,6.1l2.8-8.8
							L215.6,203.5z"/>
						
							<g id="Accessories_x2F_Shoe_x2F_Flat-Sneaker_3_" transform="translate(143.959294, 93.331820) rotate(64.000000) translate(-143.959294, -93.331820) translate(113.459294, 73.331820)">
							<g>
								<path id="shoe_6_" class="st8" d="M173.5-8.9c0.8-1.3,1.5-2.1,2-2.5c0.6-0.5,1.7-1.2,3.2-1.9c0.6,0.8,6,7.7,16.4,20.9
									c-1.3,1.9-2.6,2.4-3.7,1.3c-1.1-1.1-1.9-1.9-2.7-2.6l-11.9-6.4c-0.2-0.1-0.3-0.4-0.2-0.6l0,0l1-1.8
									c-0.3-1.5-0.8-2.5-1.3-3.2c-0.4-0.5-1.2-1.1-2.4-1.8l0,0c-0.5-0.2-0.6-0.8-0.4-1.2C173.5-8.8,173.5-8.9,173.5-8.9z"/>
							</g>
						</g>
						<g id="Accessories_x2F_Shoe_x2F_Flat-Sneaker_1_" transform="translate(263.000000, 132.000000)">
							<g>
								<path id="shoe_4_" class="st8" d="M-95.5,118.1c0.5,1.4,0.8,2.5,0.8,3.2c0,0.9-0.2,2.1-0.4,3.7c-1,0-9.8,0-26.5,0
									c-0.7-2.3-0.3-3.5,1.2-3.7s2.7-0.3,3.7-0.5l12.3-5.5c0.2-0.1,0.5,0,0.6,0.2l0,0l0.8,1.9c1.3,0.6,2.5,1,3.3,1
									c0.7,0,1.7-0.3,2.9-0.9l0,0C-96.3,117.3-95.8,117.5-95.5,118.1C-95.5,118-95.5,118-95.5,118.1z"/>
							</g>
						</g>
						<path id="Skin_5_" class="st7" d="M188.9,162.9l-17-7.5c-3-3-5.8-5.2-8.6-6.8c-0.8-0.3-2.3-0.3-0.8,1.9s3,4.6,2.4,5.4
							c-0.6,0.8-2.4-0.1-3,1.2c-0.5,0.9,2.5,1.8,8.9,3l12.7,9.8L188.9,162.9z M257.7,165l-9.6,1.9c9.7,18.1,14.8,27.7,15.5,28.8
							c1.6,2.4,0.1,6.9-0.4,9.3c3.4,0.8,2.1-4.4,6.4-3.3c3.9,1,7.3,3.5,11,0.1c0.4-0.4,0.8-1.7-0.8-2.4c-3.8-1.7-9.5-4.8-10.4-6
							C268.1,191.7,264.2,182.2,257.7,165z"/>
						
							<linearGradient id="Coat-Back_1_" gradientUnits="userSpaceOnUse" x1="173.8" y1="-5775.3447" x2="221.9545" y2="-5775.3447" gradientTransform="matrix(1 0 0 1 0 5928)">
							<stop  offset="0" style="stop-color:#FFC565"/>
							<stop  offset="1" style="stop-color:#FF7F19"/>
						</linearGradient>
						<path id="Coat-Back_6_" class="st11" d="M221.9,128.8l-4-0.7c-8.9,8.6-12.5,29.3-18.4,32.1c-5.6,2.6-13.4,0.1-22.8-3.3
							l-2.9,6.4c8.5,9.3,26.7,17.1,34.1,12.6C219.6,168.8,222.4,143.3,221.9,128.8z"/>
						<path id="Shirt_5_" class="st6" d="M239.6,180.1c-16.3,0-28.2,0-35.9,0c-1.6,0-1.3-2.4-1.1-3.6c2.8-13.9,13.4-28.8,13.4-48.5
							l10.4-1.6C235,140.2,237.9,157.2,239.6,180.1z"/>
						
							<linearGradient id="SVGID_7_" gradientUnits="userSpaceOnUse" x1="213.3515" y1="142.5533" x2="269.2" y2="142.5533" gradientTransform="matrix(1 0 0 -1 0 302)">
							<stop  offset="0" style="stop-color:#FFC565"/>
							<stop  offset="1" style="stop-color:#FF7F19"/>
						</linearGradient>
						<path class="st12" d="M269.2,193.3c-4-24.7-14.1-44.1-30.3-58.2c3-5.7,2.1-9.1-0.9-10.5c-3.1-1.4-6,0.6-11,0.1
							c-0.3,0-0.5-0.1-0.8,0l-2.5-0.1c-0.2,0.6-0.7,1.8-0.7,1.8c-9.3,31.9-11.9,53.1-7.7,63.7h32.3c-0.5-7.8-2.2-16-4.4-24
							c7.3,13.3,13.5,22.8,18.5,28.7L269.2,193.3z"/>
					</g>
				</g>
			</g>
		</g>
	</g>
</g>
</svg>
